<mxfile host="app.diagrams.net" modified="2024-05-28T06:48:08.828Z" agent="Mozilla/5.0 (X11; Linux x86_64) AppleWebKit/537.36 (KHTML, like Gecko) Chrome/119.0.0.0 Safari/537.36" version="24.3.1" etag="WeRroLtXpYuMUg2sxEUv" type="github">
  <diagram name="Page-1" id="I2akMdhueYQu2CVYtgjw">
    <mxGraphModel>
      <root>
        <mxCell id="0" />
        <mxCell id="1" parent="0" />
      </root>
    </mxGraphModel>
  </diagram>
</mxfile>
